HIERARCHY
ROOT Hips
{
    OFFSET 0.000000 0.000000 0.000000
    CHANNELS 6 Xposition Yposition Zposition Zrotation Xrotation Yrotation
    JOINT Spine
    {
        OFFSET -0.000000 7.795402 0.000000
        CHANNELS 3 Zrotation Xrotation Yrotation
        JOINT Spine1
        {
            OFFSET -0.000000 20.648252 0.000000
            CHANNELS 3 Zrotation Xrotation Yrotation
            JOINT Neck
            {
                OFFSET -0.000000 20.563454 1.869405
                CHANNELS 3 Zrotation Xrotation Yrotation
                JOINT Head
                {
                    OFFSET -0.000000 13.309221 -1.901317
                    CHANNELS 3 Zrotation Xrotation Yrotation
                    End Site
                    {
                        OFFSET -0.000000 23.766466 0.000000
                    }
                }
            }
            JOINT LeftShoulder
            {
                OFFSET 3.798743 19.114376 -0.113875
                CHANNELS 3 Zrotation Xrotation Yrotation
                JOINT LeftArm
                {
                    OFFSET 9.772051 0.000000 0.000000
                    CHANNELS 3 Zrotation Xrotation Yrotation
                    JOINT LeftForeArm
                    {
                        OFFSET 36.651028 0.000000 0.000000
                        CHANNELS 3 Zrotation Xrotation Yrotation
                        JOINT LeftHand
                        {
                            OFFSET 25.694054 0.000000 0.000000
                            CHANNELS 3 Zrotation Xrotation Yrotation
                            End Site
                            {
                                OFFSET 14.259881 0.000000 0.000000
                            }
                        }
                    }
                }
            }
            JOINT RightShoulder
            {
                OFFSET -3.780769 19.114376 -0.113875
                CHANNELS 3 Zrotation Xrotation Yrotation
                JOINT RightArm
                {
                    OFFSET -9.772051 0.000000 0.000000
                    CHANNELS 3 Zrotation Xrotation Yrotation
                    JOINT RightForeArm
                    {
                        OFFSET -36.651028 0.000000 0.000000
                        CHANNELS 3 Zrotation Xrotation Yrotation
                        JOINT RightHand
                        {
                            OFFSET -25.694054 0.000000 0.000000
                            CHANNELS 3 Zrotation Xrotation Yrotation
                            End Site
                            {
                                OFFSET -14.259881 0.000000 0.000000
                            }
                        }
                    }
                }
            }
        }
    }
    JOINT LeftUpLeg
    {
        OFFSET 9.506587 0.000000 0.000000
        CHANNELS 3 Zrotation Xrotation Yrotation
        JOINT LeftLeg
        {
            OFFSET -0.000000 -42.556026 0.000000
            CHANNELS 3 Zrotation Xrotation Yrotation
            JOINT LeftFoot
            {
                OFFSET -0.000000 -42.739758 0.000000
                CHANNELS 3 Zrotation Xrotation Yrotation
                JOINT LeftToeBase
                {
                    OFFSET -0.000000 -6.179281 14.259881
                    CHANNELS 3 Zrotation Xrotation Yrotation
                    End Site
                    {
                        OFFSET -0.000000 0.000000 3.802635
                    }
                }
            }
        }
    }
    JOINT RightUpLeg
    {
        OFFSET -9.506587 0.000000 0.000000
        CHANNELS 3 Zrotation Xrotation Yrotation
        JOINT RightLeg
        {
            OFFSET -0.000000 -42.556026 0.000000
            CHANNELS 3 Zrotation Xrotation Yrotation
            JOINT RightFoot
            {
                OFFSET -0.000000 -42.739758 0.000000
                CHANNELS 3 Zrotation Xrotation Yrotation
                JOINT RightToeBase
                {
                    OFFSET -0.000000 -6.179281 14.259881
                    CHANNELS 3 Zrotation Xrotation Yrotation
                    End Site
                    {
                        OFFSET -0.000000 0.000000 3.802635
                    }
                }
            }
        }
    }
}
MOTION
Frames:    5
Frame Time:    0.008333
-11.323740    92.687393    23.812679    0.489525    -0.007403    87.784874    -2.757447    -3.859708    -0.022293    2.659548    1.449306    0.036838    7.818085    12.891872    0.326257    -0.585476    -7.544911    -0.028595    16.731512    -0.428606    4.732339    -16.120255    0.925839    -6.773012    -1.829431    -2.947284    -1.615909    9.789466    -3.505094    -6.216403    -14.496324    -1.353714    8.678188    18.592886    0.838211    -4.397577    1.223890    -1.950110    -0.333664    6.851767    -1.739443    3.460717    5.870173    4.027908    0.641809    -2.281000    2.145521    0.703946    -4.544856    -6.126997    21.799475    0.000000    0.000000    0.000000    -6.587730    0.223028    -0.322298    3.731138    6.885205    -0.883566    5.306956    -7.968202    -15.027807    0.000000    0.000000    0.000000    
-11.329494    92.687469    23.793655    0.499794    -0.009011    87.782753    -2.779313    -3.792936    -0.021409    2.664405    1.408461    0.038681    7.781064    12.846250    0.309080    -0.504836    -7.611726    -0.032068    16.731104    -0.399981    4.734076    -16.099169    0.919034    -6.770376    -1.794063    -2.957016    -1.652609    9.765709    -3.504732    -6.112748    -14.506287    -1.309487    8.685362    18.572653    0.788725    -4.407708    1.240283    -1.923566    -0.312194    6.583908    -1.721307    3.458109    5.861959    4.021238    0.659531    -2.283334    2.171730    0.688509    -4.545450    -6.147341    21.786840    0.000000    0.000000    0.000000    -6.596876    0.219977    -0.325385    3.730077    6.895518    -0.916350    5.323732    -7.957433    -15.004419    0.000000    0.000000    0.000000    
-11.335095    92.687729    23.783203    0.499861    -0.010924    87.775238    -2.778669    -3.761878    -0.020633    2.650792    1.374336    0.038500    7.910347    12.711647    0.333726    -0.699525    -7.441571    -0.059723    16.723764    -0.373430    4.732342    -16.083248    0.914652    -6.762486    -1.779961    -2.972916    -1.684381    9.824914    -3.521011    -6.076987    -14.489005    -1.292235    8.711850    18.556654    0.771754    -4.426495    1.198150    -1.929844    -0.300411    6.674438    -1.727946    3.409595    5.859146    4.014100    0.669749    -2.289972    2.180327    0.684485    -4.502761    -6.137395    21.793678    0.000000    0.000000    0.000000    -6.604586    0.210362    -0.318270    3.734084    6.904173    -0.886540    5.314102    -7.947692    -15.031463    0.000000    0.000000    0.000000    
-11.338554    92.687912    23.775450    0.502662    -0.017062    87.773239    -2.811996    -3.716669    -0.010291    2.701398    1.312832    0.050212    7.803945    12.878209    0.282545    -0.516835    -7.701816    -0.060221    16.695768    -0.366548    4.684055    -16.075541    0.955665    -6.739380    -1.755169    -3.000219    -1.693002    9.840649    -3.547286    -6.058115    -14.487652    -1.266251    8.689518    18.527496    0.795018    -4.421838    1.178565    -1.924871    -0.294332    6.742349    -1.722985    3.376580    5.862117    4.012746    0.677124    -2.289901    2.188665    0.680912    -4.502143    -6.142308    21.785284    0.000000    0.000000    0.000000    -6.600440    0.204337    -0.338404    3.726571    6.915111    -0.880842    5.332705    -7.946802    -15.013597    0.000000    0.000000    0.000000    
-11.344309    92.688904    23.765665    0.499498    -0.018409    87.769279    -2.800805    -3.685309    -0.016105    2.682014    1.275132    0.045063    7.845148    12.712413    0.316827    -0.597274    -7.482619    -0.054816    16.686043    -0.355465    4.699107    -16.058418    0.966928    -6.735415    -1.744062    -3.025184    -1.710395    9.833973    -3.570553    -6.041699    -14.498980    -1.243681    8.705091    18.530676    0.769044    -4.413879    1.183109    -1.919803    -0.291445    6.705050    -1.721383    3.337143    5.859858    4.002531    0.669099    -2.293090    2.194569    0.689476    -4.522344    -6.156024    21.783848    0.000000    0.000000    0.000000    -6.606929    0.194671    -0.317377    3.733019    6.923551    -0.876624    5.324408    -7.946006    -15.046430    0.000000    0.000000    0.000000    
